<?xml version="1.0"?>
<svg xmlns="http://www.w3.org/2000/svg" xmlns:xlink="http://www.w3.org/1999/xlink" xmlns:svgjs="http://svgjs.com/svgjs" version="1.1" width="512" height="512" x="0" y="0" viewBox="0 0 512 512" style="enable-background:new 0 0 512 512" xml:space="preserve" class=""><g><g xmlns="http://www.w3.org/2000/svg" id="filled_outline" data-name="filled outline"><path d="m297 197a96.969 96.969 0 0 0 -.787-12.338l31.638-23.949-32-55.426-36.571 15.43a95.866 95.866 0 0 0 -21.36-12.356l-4.92-39.361h-64l-4.92 39.361a95.888 95.888 0 0 0 -21.36 12.356l-36.571-15.43-32 55.426 31.638 23.949a97.106 97.106 0 0 0 0 24.676l-31.638 23.949 32 55.426 36.571-15.43a95.888 95.888 0 0 0 21.36 12.356l4.92 39.361h64l4.92-39.361a95.866 95.866 0 0 0 21.36-12.356l36.571 15.43 32-55.426-31.638-23.949a96.969 96.969 0 0 0 .787-12.338zm-96 32a32 32 0 1 1 32-32 32 32 0 0 1 -32 32z" fill="#bbbab6" data-original="#bbbab6" style="" class=""/><path d="m80 320h304v64h-304z" fill="#768753" data-original="#768753" style=""/><circle cx="80" cy="352" fill="#667447" r="32" data-original="#667447" style="" class=""/><path d="m80 384 1.232-.411a33.3 33.3 0 0 0 22.768-31.589h120v32z" fill="#91a666" data-original="#91a666" style=""/><g fill="#c7830b"><path d="m336 215.388a112 112 0 0 1 112 112v32a0 0 0 0 1 0 0h-224a0 0 0 0 1 0 0v-32a112 112 0 0 1 112-112z" fill="#f57505" data-original="#c7830b" style="" class=""/><path d="m272 235.47v59.92a8 8 0 0 1 -16 0v-46.38a111.927 111.927 0 0 1 16-13.54z" fill="#f57505" data-original="#c7830b" style="" class=""/><path d="m416 249.01v38.38a8 8 0 0 1 -16 0v-51.92a111.5 111.5 0 0 1 15.2 12.72c.27.27.54.54.8.82z" fill="#f57505" data-original="#c7830b" style="" class=""/></g><path d="m448 359.388h-224l72-40v-120a203.962 203.962 0 0 1 80 0v120z" fill="#fd7c2f" data-original="#d78e0c" style="" class=""/><path d="m224 359.388-16 8v16l6.732 1.683a500 500 0 0 0 242.536 0l6.732-1.683v-16l-16-8z" fill="#f57505" data-original="#c7830b" style="" class=""/><path d="m169.985 261a7.96 7.96 0 0 1 -3.875-1 72.011 72.011 0 1 1 70.9-125.357 8 8 0 1 1 -8.014 13.849 56.011 56.011 0 1 0 -55.119 97.518 8 8 0 0 1 -3.889 15z" fill="#bbbab6" data-original="#bbbab6" style="" class=""/><path d="m208.99 268.506a8 8 0 0 1 -.98-15.94 55.642 55.642 0 0 0 13.99-3.633 8 8 0 1 1 6 14.83 71.624 71.624 0 0 1 -18.012 4.68 8.064 8.064 0 0 1 -.998.063z" fill="#bbbab6" data-original="#bbbab6" style="" class=""/><path d="m201 157a40 40 0 1 0 40 40 40.045 40.045 0 0 0 -40-40zm0 64a24 24 0 1 1 24-24 24.028 24.028 0 0 1 -24 24z" fill="#000000" data-original="#000000" style="" class=""/><path d="m176.987 256.882a8 8 0 0 0 -3.113-10.877 56.011 56.011 0 1 1 55.119-97.518 8 8 0 1 0 8.014-13.849 72.011 72.011 0 1 0 -70.897 125.362 8 8 0 0 0 10.877-3.113z" fill="#000000" data-original="#000000" style="" class=""/><path d="m222 248.933a55.642 55.642 0 0 1 -13.988 3.633 8 8 0 1 0 1.98 15.877 71.624 71.624 0 0 0 18.008-4.68 8 8 0 1 0 -6-14.83z" fill="#000000" data-original="#000000" style="" class=""/><path d="m40 352a40.045 40.045 0 0 0 40 40h128a8.037 8.037 0 0 0 1.115-.087l3.677.919a508.322 508.322 0 0 0 123.208 15.113 508.455 508.455 0 0 0 123.207-15.112l6.732-1.683a8 8 0 0 0 6.061-7.761v-16a8 8 0 0 0 -4.422-7.156l-11.578-5.789v-27.056a119.995 119.995 0 0 0 -72-110v-18a8 8 0 0 0 -6.431-7.845 210.683 210.683 0 0 0 -72.84-1.8c-.033-.476-.049-.953-.088-1.428l28.039-21.224a8 8 0 0 0 2.1-10.379l-32-55.426a8 8 0 0 0 -10.037-3.371l-32.4 13.671a104.03 104.03 0 0 0 -15.04-8.7l-4.36-34.879a8 8 0 0 0 -7.943-7.007h-64a8 8 0 0 0 -7.938 7.008l-4.36 34.879a104.03 104.03 0 0 0 -15.04 8.7l-32.4-13.671a8 8 0 0 0 -10.037 3.371l-32 55.426a8 8 0 0 0 2.1 10.379l28.039 21.224c-.244 2.884-.364 5.793-.364 8.684s.12 5.8.359 8.684l-28.039 21.224a8 8 0 0 0 -2.1 10.379l32 55.426a8 8 0 0 0 10.037 3.371l32.4-13.671a104.03 104.03 0 0 0 15.04 8.7l2.616 20.887h-79.313a40.045 40.045 0 0 0 -40 40zm416 20.333v4.809l-.673.169a493.725 493.725 0 0 1 -238.655 0l-.672-.168v-4.809l9.889-4.944h220.222zm-192-68.944a8 8 0 0 0 8-8v-50.012a103.6 103.6 0 0 1 16-10.28v79.585l-56 31.111v-18.405a103.342 103.342 0 0 1 18.763-59.6c1.656-2.364 3.409-4.641 5.237-6.844v34.449a8 8 0 0 0 8 7.996zm120-68.289a103.451 103.451 0 0 1 16 10.28v42.012a8 8 0 0 0 16 0v-26.451q2.742 3.3 5.236 6.842a103.339 103.339 0 0 1 18.764 59.605v18.405l-56-31.111zm-16-29.04v113.329a8 8 0 0 0 4.115 6.993l45.012 25.007h-162.254l45.012-25.007a8 8 0 0 0 4.115-6.993v-113.332a194.6 194.6 0 0 1 64 0zm-220.418 60.87a8 8 0 0 0 -7.971-1.018l-30.065 12.688-24.939-43.2 26.008-19.686a8 8 0 0 0 3.107-7.4 89.087 89.087 0 0 1 0-22.638 8 8 0 0 0 -3.107-7.4l-26.008-19.676 24.939-43.2 30.065 12.685a8.006 8.006 0 0 0 7.971-1.018 87.908 87.908 0 0 1 19.577-11.325 8 8 0 0 0 4.86-6.391l4.043-32.351h49.876l4.043 32.354a8 8 0 0 0 4.86 6.391 87.908 87.908 0 0 1 19.577 11.325 8.005 8.005 0 0 0 7.971 1.018l30.065-12.688 24.939 43.2-26.008 19.686a8 8 0 0 0 -3.107 7.4 89.424 89.424 0 0 1 .7 9.886 7.97 7.97 0 0 0 -.977 3.822v18a119.971 119.971 0 0 0 -71.001 94.606h-41.562l-3.419-27.354a8 8 0 0 0 -4.86-6.391 87.908 87.908 0 0 1 -19.577-11.325zm68.418 61.07v16h-96.8a39.841 39.841 0 0 0 -7.217-16zm-104.776 32h93.665l-.467.233a8 8 0 0 0 -4.422 7.156v8.611h-95.675a41.21 41.21 0 0 0 6.899-16zm-8.559-15.88a8 8 0 0 0 -6.665 7.88 25.266 25.266 0 0 1 -17.215 23.969 24 24 0 1 1 23.88-31.849z" fill="#000000" data-original="#000000" style="" class=""/></g></g></svg>
