<svg id="_x33_0" enable-background="new 0 0 64 64" height="512" viewBox="0 0 64 64" width="512" xmlns="http://www.w3.org/2000/svg"><g><g><g><path d="m31.8 12.14c.7 1.82 1.83 3.44 3.28 4.71-1.91-.56-3.92-.85-5.99-.85-8.65 0-15.91 5.06-19.09 13l4 1-9 9-3-12 4 1c3.65-9.76 12.59-16 23.09-16 .91 0 1.82.05 2.71.14z" fill="#ffeaa7"/></g><g><circle cx="29" cy="37" fill="#69d6f4" r="11"/></g><g><path d="m53 35 3 12-4-1c-3.65 9.76-12.59 16-23.09 16-10.98 0-20.59-6.99-23.91-17.39l3.81-1.22c2.79 8.74 10.86 14.61 20.1 14.61 8.65 0 15.91-5.06 19.09-13l-4-1z" fill="#ffeaa7"/></g><g><path d="m49 21.96c0-4.66 3.21-8.7 7.75-9.75l5.25-1.21v5.64c0 3.72-2.57 6.95-6.2 7.79l-6.8 1.57z" fill="#a0d468"/></g><g><path d="m49 21-7.97-1.33c-2.27-.38-4.31-1.38-5.95-2.82-1.45-1.27-2.58-2.89-3.28-4.71-.52-1.34-.8-2.8-.8-4.31v-5.83l7.97 1.33c5.79.96 10.03 5.97 10.03 11.84z" fill="#b4dd7f"/></g></g><g><path d="m41 37c0-6.617-5.383-12-12-12s-12 5.383-12 12 5.383 12 12 12 12-5.383 12-12zm-22 0c0-1.045.163-2.052.461-3h3.778c-.151.918-.239 1.915-.239 3s.088 2.082.24 3h-3.778c-.299-.948-.462-1.955-.462-3zm6 0c0-1.107.109-2.096.279-3h7.439c.172.904.282 1.894.282 3 0 1.107-.109 2.096-.279 3h-7.439c-.172-.904-.282-1.894-.282-3zm3.997-9.76c.776.641 2.258 2.142 3.187 4.76h-6.375c.923-2.62 2.402-4.116 3.188-4.76zm10.003 9.76c0 1.045-.163 2.052-.461 3h-3.779c.151-.918.24-1.915.24-3s-.088-2.082-.24-3h3.778c.299.948.462 1.955.462 3zm-6.809 5c-.923 2.622-2.404 4.118-3.188 4.76-.776-.641-2.259-2.142-3.187-4.76zm-.229 4.552c.852-1.08 1.734-2.577 2.329-4.552h3.356c-1.249 2.151-3.268 3.801-5.685 4.552zm5.685-14.552h-3.356c-.595-1.974-1.477-3.471-2.329-4.552 2.417.751 4.436 2.401 5.685 4.552zm-11.609-4.552c-.852 1.08-1.734 2.577-2.329 4.552h-3.356c1.249-2.151 3.268-3.801 5.685-4.552zm-5.685 14.552h3.356c.595 1.974 1.477 3.471 2.329 4.552-2.417-.751-4.436-2.401-5.685-4.552z"/><path d="m42.044 44.542 4.571 1.143c-3.256 7.009-9.942 11.315-17.705 11.315-8.796 0-16.491-5.592-19.147-13.914l-.304-.954-5.715 1.831.304.951c3.452 10.818 13.444 18.086 24.862 18.086 10.513 0 19.72-6.178 23.699-15.817l4.765 1.191-3.833-15.33zm9.332.271-.313.836c-3.541 9.469-12.029 15.351-22.153 15.351-10.207 0-19.18-6.288-22.634-15.748l1.907-.611c3.188 8.63 11.394 14.359 20.727 14.359 8.981 0 16.651-5.222 20.018-13.628l.426-1.064-3.398-.85 6.502-6.502 2.167 8.67z"/><path d="m56.527 11.236c-2.734.631-5.013 2.23-6.527 4.383v-.455c0-6.381-4.568-11.773-10.863-12.822l-9.137-1.523v7.016c0 1.103.145 2.173.403 3.2-.439-.022-.878-.035-1.313-.035-10.513 0-19.72 6.178-23.699 15.817l-4.765-1.191 3.833 15.33 11.498-11.498-4.571-1.143c3.255-7.009 9.941-11.315 17.704-11.315 1.869 0 3.716.259 5.498.757 1.738 1.471 3.88 2.502 6.275 2.901l7.137 1.189v10.153h2v-5.204l6.023-1.39c4.108-.948 6.977-4.554 6.977-8.77v-6.893zm-47.455 17.392-.426 1.064 3.398.85-6.502 6.502-2.167-8.67 3.25.813.313-.836c3.54-9.469 12.028-15.351 22.152-15.351.67 0 1.347.036 2.021.091.331.752.727 1.469 1.19 2.139-1.06-.152-2.133-.23-3.211-.23-8.981 0-16.652 5.222-20.018 13.628zm22.928-20.793v-4.654l6.809 1.135c5.325.887 9.191 5.45 9.191 10.849v3.421l-10.293-10.293-1.414 1.414 9.793 9.793-4.895-.816c-5.325-.887-9.191-5.45-9.191-10.849zm29 8.801c0 3.279-2.231 6.084-5.426 6.82l-3.401.785 5.534-5.534-1.414-1.414-6.293 6.293v-1.631c0-4.216 2.869-7.822 6.976-8.77l4.024-.928z"/></g></g></svg>