<?xml version="1.0"?>
<svg xmlns="http://www.w3.org/2000/svg" xmlns:xlink="http://www.w3.org/1999/xlink" xmlns:svgjs="http://svgjs.com/svgjs" version="1.1" width="512" height="512" x="0" y="0" viewBox="0 0 512 512" style="enable-background:new 0 0 512 512" xml:space="preserve" class=""><g><circle xmlns="http://www.w3.org/2000/svg" cx="256" cy="256" fill="#56c3c1" r="168" data-original="#56c3c1" style="" class=""/><path xmlns="http://www.w3.org/2000/svg" d="m336 176v74.2a100 100 0 0 1 -55.279 89.442l-24.721 12.358-24.721-12.361a100 100 0 0 1 -55.279-89.439v-74.2a207.7 207.7 0 0 0 77.139-14.856l2.861-1.144 2.861 1.145a207.714 207.714 0 0 0 77.139 14.855z" fill="#2aa2c3" data-original="#2aa2c3" style="" class=""/><path xmlns="http://www.w3.org/2000/svg" d="m256 280a7.976 7.976 0 0 1 -5.657-2.343l-14.343-14.343a8 8 0 0 1 0-11.314 8 8 0 0 1 11.314 0l8.686 8.687 36.9-36.9a7.7 7.7 0 0 1 10.886 0l.428.428a7.7 7.7 0 0 1 0 10.886l-42.557 42.557a7.976 7.976 0 0 1 -5.657 2.342z" fill="#e3e4e2" data-original="#e3e4e2" style="" class=""/><path xmlns="http://www.w3.org/2000/svg" d="m253.323 311.937a56 56 0 1 1 22.677-108.251 7.676 7.676 0 0 1 3.835 11.017l-.308.533a7.667 7.667 0 0 1 -9.327 3.364 40.005 40.005 0 1 0 25.262 43.995 7.768 7.768 0 0 1 7.617-6.59h.608a7.71 7.71 0 0 1 7.6 8.944 56.08 56.08 0 0 1 -57.964 46.988z" fill="#e3e4e2" data-original="#e3e4e2" style="" class=""/><path xmlns="http://www.w3.org/2000/svg" d="m64 368h-16v16h-16v16h16v16h16v-16h16v-16h-16z" fill="#fb8d00" data-original="#85bb40" style="" class=""/><path xmlns="http://www.w3.org/2000/svg" d="m32 224h16v-16h16v-16h-16v-16h-16v16h-16v16h16z" fill="#fb8d00" data-original="#85bb40" style="" class=""/><path xmlns="http://www.w3.org/2000/svg" d="m40 288h16v16h-16z" fill="#56c3c1" data-original="#56c3c1" style="" class=""/><path xmlns="http://www.w3.org/2000/svg" d="m448 144h16v-16h16v-16h-16v-16h-16v16h-16v16h16z" fill="#fb8d00" data-original="#85bb40" style="" class=""/><path xmlns="http://www.w3.org/2000/svg" d="m496 304h-16v-16h-16v16h-16v16h16v16h16v-16h16z" fill="#fb8d00" data-original="#85bb40" style="" class=""/><path xmlns="http://www.w3.org/2000/svg" d="m456 208h16v16h-16z" fill="#56c3c1" data-original="#56c3c1" style="" class=""/><path xmlns="http://www.w3.org/2000/svg" d="m123.77 456.852h160.03v-48.852h-75.8l-24-8a50.6 50.6 0 0 0 -60.23 23.43z" fill="#e4b08b" data-original="#e4b08b" style=""/><path xmlns="http://www.w3.org/2000/svg" d="m424 400h-32l-15.66-15.66a55.788 55.788 0 0 0 -39.448-16.34 55.787 55.787 0 0 0 -30.946 9.37l-9.946 6.63-56.131-5.1a29.223 29.223 0 0 0 -31.869 29.1l66.177 10.181-58.177 21.819-80-16a40.148 40.148 0 0 0 -12.23-.57 40.779 40.779 0 0 0 -35.77 32.57l168 32 96-24h72z" fill="#f6c8a7" data-original="#f6c8a7" style="" class=""/><rect xmlns="http://www.w3.org/2000/svg" fill="#e4b08b" height="38.268" rx="8" transform="matrix(.152 -.988 .988 .152 -167.668 646.748)" width="15.999" x="285.089" y="401.957" data-original="#e4b08b" style=""/><path xmlns="http://www.w3.org/2000/svg" d="m408 384h88v96h-88z" fill="#0093b9" transform="matrix(-1 0 0 -1 904 864)" data-original="#0093b9" style="" class=""/><rect xmlns="http://www.w3.org/2000/svg" fill="#e3e4e2" height="16" rx="8" width="16" x="432" y="440" data-original="#e3e4e2" style="" class=""/><path xmlns="http://www.w3.org/2000/svg" d="m388.23 55.148h-160.03v48.852h75.8l24 8a50.6 50.6 0 0 0 60.23-23.43z" fill="#e4b08b" data-original="#e4b08b" style=""/><path xmlns="http://www.w3.org/2000/svg" d="m88 112h32l15.66 15.66a55.788 55.788 0 0 0 39.448 16.34 55.787 55.787 0 0 0 30.946-9.37l9.946-6.63 56.131 5.1a29.223 29.223 0 0 0 31.869-29.1l-66.177-10.181 58.177-21.819 80 16a40.148 40.148 0 0 0 12.23.57 40.779 40.779 0 0 0 35.77-32.57l-168-32-96 24h-72z" fill="#f6c8a7" data-original="#f6c8a7" style="" class=""/><rect xmlns="http://www.w3.org/2000/svg" fill="#e4b08b" height="38.268" rx="8" transform="matrix(.152 -.988 .988 .152 95.775 293.454)" width="15.999" x="210.912" y="71.776" data-original="#e4b08b" style=""/><path xmlns="http://www.w3.org/2000/svg" d="m16 32h88v96h-88z" fill="#0093b9" data-original="#0093b9" style="" class=""/><rect xmlns="http://www.w3.org/2000/svg" fill="#e3e4e2" height="16" rx="8" width="16" x="64" y="56" data-original="#e3e4e2" style="" class=""/></g></svg>
